<svg xmlns="http://www.w3.org/2000/svg" xmlns:xlink="http://www.w3.org/1999/xlink" width="500" zoomAndPan="magnify" viewBox="0 0 375 374.999991" height="500" preserveAspectRatio="xMidYMid meet" version="1.0"><defs><g/><clipPath id="cd21e56b41"><path d="M 112.5 123.460938 L 262.5 123.460938 L 262.5 191 L 112.5 191 Z M 112.5 123.460938 " clip-rule="nonzero"/></clipPath></defs><rect x="-37.5" width="450" fill="#ffffff" y="-37.499999" height="449.999989" fill-opacity="1"/><rect x="-37.5" width="450" fill="#ffffff" y="-37.499999" height="449.999989" fill-opacity="1"/><rect x="-37.5" width="450" fill="#ffffff" y="-37.499999" height="449.999989" fill-opacity="1"/><g clip-path="url(#cd21e56b41)"><path fill="#b97375" d="M 262.042969 148.738281 C 260.742188 137.738281 251.507812 138.207031 247.761719 138.867188 C 245.902344 134.402344 242.199219 130.96875 237.554688 129.140625 L 208.167969 123.683594 C 206.957031 123.476562 205.859375 124.414062 205.859375 125.632812 L 166.105469 131.5625 C 163.355469 131.976562 161.300781 135.394531 161.136719 138.226562 L 119.164062 142.578125 C 116.425781 142.578125 114.1875 144.722656 114.070312 147.445312 C 112.972656 173.988281 113.800781 154.082031 112.589844 183.21875 L 126.890625 183.980469 C 126.441406 174.988281 138.9375 175.816406 137.726562 184.558594 L 181.246094 186.878906 C 180.175781 180.785156 184.15625 175.050781 189.480469 175.050781 C 195.117188 175.050781 199.140625 181.449219 197.515625 187.742188 C 224.835938 189.195312 218.878906 188.878906 246.628906 190.363281 C 250.726562 190.582031 254.175781 187.320312 254.175781 183.21875 C 253.984375 181.773438 248.945312 142.96875 248.648438 141.660156 C 251.21875 140.738281 254.382812 141.523438 254.382812 141.523438 L 254.382812 141.941406 L 257.328125 144.457031 L 258.992188 149.4375 C 259.566406 151.152344 262.253906 150.582031 262.042969 148.738281 " fill-opacity="1" fill-rule="nonzero"/></g><path fill="#c3dbc8" d="M 214.683594 135.871094 C 248.175781 135.871094 242.59375 131.167969 247.453125 165.78125 L 219.722656 165.78125 L 214.683594 135.871094 " fill-opacity="1" fill-rule="nonzero"/><path fill="#c3dbc8" d="M 230.070312 159.136719 L 230.097656 159.320312 L 230.070312 159.136719 " fill-opacity="1" fill-rule="nonzero"/><path fill="#8b5657" d="M 182.960938 184.894531 C 182.960938 195.441406 195.988281 195.421875 195.988281 184.894531 C 195.988281 174.371094 182.960938 174.355469 182.960938 184.894531 " fill-opacity="1" fill-rule="nonzero"/><path fill="#b97375" d="M 225.859375 149.242188 C 224.214844 135.386719 210.011719 139.722656 210.011719 139.722656 L 210.640625 143.28125 C 213.15625 140.765625 218.203125 142.027344 218.203125 142.027344 L 218.203125 142.445312 L 221.140625 144.957031 L 222.804688 149.933594 C 223.378906 151.65625 226.074219 151.078125 225.859375 149.242188 " fill-opacity="1" fill-rule="nonzero"/><path fill="#8b5657" d="M 128.769531 183.640625 C 128.769531 189.183594 135.910156 189.183594 135.910156 183.640625 C 135.910156 178.097656 128.769531 178.089844 128.769531 183.640625 " fill-opacity="1" fill-rule="nonzero"/><path fill="#c3dbc8" d="M 224.925781 176.3125 L 210.621094 169.269531 C 210.667969 158.34375 208.984375 145.863281 206.972656 137.910156 C 206.316406 137.964844 118.246094 145.265625 117.304688 145.347656 L 115.75 183.386719 L 117.015625 183.453125 L 117.402344 173.941406 L 209.875 170.300781 L 224.140625 177.328125 L 224.140625 189.195312 L 225.398438 189.195312 L 225.398438 177.59375 L 253.519531 179.097656 L 253.589844 177.84375 Z M 197.875 139.921875 L 206.003906 139.253906 C 206.371094 140.8125 207.46875 145.796875 208.304688 152.542969 L 197.875 153.1875 Z M 186.464844 140.875 L 196.617188 140.035156 L 196.617188 153.261719 L 186.464844 153.890625 Z M 175.054688 141.820312 L 185.203125 140.976562 L 185.203125 153.964844 L 175.054688 154.59375 Z M 163.636719 142.761719 L 173.789062 141.921875 L 173.789062 154.667969 L 163.636719 155.296875 Z M 152.21875 143.714844 L 162.378906 142.867188 L 162.378906 155.371094 L 152.21875 156 Z M 140.808594 144.660156 L 150.960938 143.816406 L 150.960938 156.074219 L 140.808594 156.703125 Z M 129.398438 145.601562 L 139.550781 144.761719 L 139.550781 156.777344 L 129.398438 157.40625 Z M 118.519531 146.507812 L 128.132812 145.707031 L 128.132812 157.480469 L 118.042969 158.101562 Z M 117.449219 172.679688 L 117.996094 159.363281 L 208.457031 153.792969 C 208.984375 158.328125 209.371094 163.566406 209.355469 169.066406 L 117.449219 172.679688 " fill-opacity="1" fill-rule="nonzero"/><g fill="#b97375" fill-opacity="1"><g transform="translate(87.436683, 227.9896)"><g><path d="M 13.75 0.449219 C 20.796875 0.449219 25.972656 -2.726562 26.398438 -7.722656 L 21.746094 -7.722656 C 21.324219 -4.648438 17.921875 -2.949219 13.824219 -2.949219 C 9.175781 -2.949219 5.800781 -5.199219 5.800781 -9.273438 C 5.800781 -13.398438 9.175781 -15.625 13.824219 -15.625 C 17.773438 -15.625 21.171875 -13.847656 21.671875 -10.898438 L 26.347656 -10.898438 C 25.847656 -15.847656 20.746094 -18.972656 13.75 -18.972656 C 6.050781 -18.972656 0.976562 -15.5 0.976562 -9.273438 C 0.976562 -3.050781 6.050781 0.449219 13.75 0.449219 Z M 13.75 0.449219 "/></g></g></g><g fill="#b97375" fill-opacity="1"><g transform="translate(121.657274, 227.9896)"><g><path d="M 2.550781 0 L 20.421875 0 L 20.421875 -3.476562 L 7.324219 -3.476562 L 7.324219 -18.574219 L 2.550781 -18.574219 Z M 2.550781 0 "/></g></g></g><g fill="#b97375" fill-opacity="1"><g transform="translate(149.753833, 227.9896)"><g><path d="M 0.199219 0 L 5.472656 0 L 7.472656 -4.097656 L 18.722656 -4.097656 L 20.699219 0 L 26.023438 0 L 16.25 -18.574219 L 9.898438 -18.574219 Z M 9 -7.273438 L 12.898438 -15.273438 L 13.074219 -15.699219 L 13.125 -15.699219 L 13.324219 -15.273438 L 17.199219 -7.273438 Z M 9 -7.273438 "/></g></g></g><g fill="#b97375" fill-opacity="1"><g transform="translate(182.799619, 227.9896)"><g><path d="M 12.074219 0.449219 C 18.796875 0.449219 22.496094 -1.398438 22.496094 -5.347656 C 22.496094 -7.925781 21.371094 -10.175781 11.796875 -11.125 C 7.050781 -11.574219 6.597656 -12.449219 6.597656 -13.5 C 6.597656 -14.699219 7.875 -15.648438 11.722656 -15.648438 C 16 -15.648438 17.324219 -14.125 17.574219 -12.449219 L 22.023438 -12.449219 C 21.648438 -16.222656 18.648438 -18.972656 11.523438 -18.972656 C 4.273438 -18.972656 1.773438 -16.398438 1.773438 -13.597656 C 1.773438 -10.722656 3.25 -8.550781 11.347656 -7.722656 C 17.097656 -7.148438 17.699219 -6.550781 17.699219 -5.222656 C 17.699219 -3.675781 16.023438 -2.875 12.074219 -2.875 C 7.222656 -2.875 5.773438 -4.300781 5.648438 -6.148438 L 1 -6.148438 C 1.199219 -2.625 4.347656 0.449219 12.074219 0.449219 Z M 12.074219 0.449219 "/></g></g></g><g fill="#b97375" fill-opacity="1"><g transform="translate(213.145823, 227.9896)"><g><path d="M 12.074219 0.449219 C 18.796875 0.449219 22.496094 -1.398438 22.496094 -5.347656 C 22.496094 -7.925781 21.371094 -10.175781 11.796875 -11.125 C 7.050781 -11.574219 6.597656 -12.449219 6.597656 -13.5 C 6.597656 -14.699219 7.875 -15.648438 11.722656 -15.648438 C 16 -15.648438 17.324219 -14.125 17.574219 -12.449219 L 22.023438 -12.449219 C 21.648438 -16.222656 18.648438 -18.972656 11.523438 -18.972656 C 4.273438 -18.972656 1.773438 -16.398438 1.773438 -13.597656 C 1.773438 -10.722656 3.25 -8.550781 11.347656 -7.722656 C 17.097656 -7.148438 17.699219 -6.550781 17.699219 -5.222656 C 17.699219 -3.675781 16.023438 -2.875 12.074219 -2.875 C 7.222656 -2.875 5.773438 -4.300781 5.648438 -6.148438 L 1 -6.148438 C 1.199219 -2.625 4.347656 0.449219 12.074219 0.449219 Z M 12.074219 0.449219 "/></g></g></g><g fill="#b97375" fill-opacity="1"><g transform="translate(243.492028, 227.9896)"><g><path d="M 2.550781 0 L 7.324219 0 L 7.324219 -18.574219 L 2.550781 -18.574219 Z M 2.550781 0 "/></g></g></g><g fill="#b97375" fill-opacity="1"><g transform="translate(260.190399, 227.9896)"><g><path d="M 13.75 0.449219 C 20.796875 0.449219 25.972656 -2.726562 26.398438 -7.722656 L 21.746094 -7.722656 C 21.324219 -4.648438 17.921875 -2.949219 13.824219 -2.949219 C 9.175781 -2.949219 5.800781 -5.199219 5.800781 -9.273438 C 5.800781 -13.398438 9.175781 -15.625 13.824219 -15.625 C 17.773438 -15.625 21.171875 -13.847656 21.671875 -10.898438 L 26.347656 -10.898438 C 25.847656 -15.847656 20.746094 -18.972656 13.75 -18.972656 C 6.050781 -18.972656 0.976562 -15.5 0.976562 -9.273438 C 0.976562 -3.050781 6.050781 0.449219 13.75 0.449219 Z M 13.75 0.449219 "/></g></g></g><g fill="#ffde59" fill-opacity="1"><g transform="translate(152.43874, 247.889602)"><g><path d="M 5.152344 0.222656 C 8.300781 0.222656 9.40625 -1.808594 9.4375 -4.113281 L 9.4375 -4.191406 L 7.628906 -4.191406 L 7.628906 -4.160156 C 7.597656 -2.304688 6.71875 -1.375 5.152344 -1.375 C 3.535156 -1.375 2.625 -2.542969 2.625 -5.121094 L 2.625 -6.78125 C 2.625 -9.328125 3.535156 -10.496094 5.167969 -10.496094 C 7.007812 -10.496094 7.566406 -9.199219 7.628906 -7.710938 L 7.628906 -7.695312 L 9.4375 -7.695312 L 9.4375 -7.773438 C 9.390625 -10.03125 8.253906 -12.09375 5.167969 -12.09375 C 2.222656 -12.09375 0.800781 -10.320312 0.800781 -6.65625 L 0.800781 -5.214844 C 0.800781 -1.550781 2.253906 0.222656 5.152344 0.222656 Z M 5.152344 0.222656 "/></g></g></g><g fill="#ffde59" fill-opacity="1"><g transform="translate(168.036289, 247.889602)"><g><path d="M 5.246094 0.222656 C 8.222656 0.222656 9.679688 -1.601562 9.679688 -5.230469 L 9.679688 -6.6875 C 9.679688 -10.285156 8.222656 -12.09375 5.230469 -12.09375 C 2.273438 -12.09375 0.800781 -10.285156 0.800781 -6.6875 L 0.800781 -5.230469 C 0.800781 -1.601562 2.273438 0.222656 5.246094 0.222656 Z M 2.625 -5.136719 L 2.625 -6.78125 C 2.625 -9.328125 3.535156 -10.496094 5.246094 -10.496094 C 6.957031 -10.496094 7.855469 -9.328125 7.855469 -6.78125 L 7.855469 -5.136719 C 7.855469 -2.558594 6.957031 -1.375 5.246094 -1.375 C 3.535156 -1.375 2.625 -2.558594 2.625 -5.136719 Z M 2.625 -5.136719 "/></g></g></g><g fill="#ffde59" fill-opacity="1"><g transform="translate(183.953758, 247.889602)"><g><path d="M 0.191406 0 L 2.09375 0 L 2.925781 -2.816406 L 7.246094 -2.816406 L 8.078125 0 L 9.984375 0 L 6.269531 -11.886719 L 3.902344 -11.886719 Z M 3.359375 -4.335938 L 4.863281 -9.4375 L 5.070312 -10.269531 L 5.101562 -10.269531 L 5.3125 -9.4375 L 6.816406 -4.335938 Z M 3.359375 -4.335938 "/></g></g></g><g fill="#ffde59" fill-opacity="1"><g transform="translate(199.583305, 247.889602)"><g><path d="M 4.703125 0.222656 C 7.199219 0.222656 8.65625 -1.039062 8.65625 -3.167969 C 8.65625 -5.40625 7.421875 -6.351562 4.910156 -7.039062 C 3.519531 -7.421875 2.703125 -7.757812 2.703125 -9.007812 C 2.703125 -9.855469 3.28125 -10.558594 4.640625 -10.558594 C 6.320312 -10.558594 6.765625 -9.550781 6.800781 -8.445312 L 8.527344 -8.445312 C 8.496094 -10.605469 7.277344 -12.09375 4.605469 -12.09375 C 2.222656 -12.09375 0.878906 -10.878906 0.878906 -9.023438 C 0.878906 -6.992188 2.015625 -6.207031 4.144531 -5.582031 C 5.949219 -5.039062 6.816406 -4.703125 6.816406 -3.183594 C 6.816406 -2.03125 6.160156 -1.3125 4.703125 -1.3125 C 2.816406 -1.3125 2.335938 -2.527344 2.335938 -3.597656 L 0.542969 -3.597656 C 0.558594 -1.246094 1.917969 0.222656 4.703125 0.222656 Z M 4.703125 0.222656 "/></g></g></g><g fill="#ffde59" fill-opacity="1"><g transform="translate(214.301067, 247.889602)"><g><path d="M 3.214844 0 L 5.039062 0 L 5.039062 -10.320312 L 8.175781 -10.320312 L 8.175781 -11.886719 L 0.078125 -11.886719 L 0.078125 -10.320312 L 3.214844 -10.320312 Z M 3.214844 0 "/></g></g></g></svg>